<svg xmlns="http://www.w3.org/2000/svg" xmlns:xlink="http://www.w3.org/1999/xlink" fill="none" version="1.1" width="37.5" height="30" viewBox="0 0 37.5 30"><defs><clipPath id="master_svg0_157_6152"><rect x="0" y="0" width="37.5" height="30" rx="0"/></clipPath></defs><g clip-path="url(#master_svg0_157_6152)"><g transform="matrix(1,0,0,-1,0,57.56837463378906)"><g><path d="M18.80876328125,55.04878731689453Q18.10786328125,55.04878731689453,17.40686328125,54.81448731689453L1.05174428125,48.896487316894536Q0.17557588125,48.48628731689453,0.11716468125,47.54878731689453Q0.17557588125,46.61128731689453,1.05174428125,46.20118731689453L4.43959328125,44.97068731689453Q2.97931328125,42.685587316894534,2.92090328125,39.81448731689453L2.92090328125,38.173837316894534Q2.74567328125,35.59570731689453,1.63585328125,33.42773731689453Q1.05174428125,32.31445731689453,0.29239828125,31.25977731689453Q0.00034228125000000664,30.84961731689453,0.17557588125,30.38086731689453Q0.35080928125,29.91211731689453,0.81809928125,29.736335316894532L4.55641328125,28.79883571689453Q4.96529328125,28.74024201689453,5.31576328125,28.91602331689453Q5.60782328125,29.15039831689453,5.72464328125,29.56055431689453Q6.30875328125,33.42773731689453,5.60782328125,35.88867731689453Q5.31576328125,37.17773731689453,4.79006328125,38.34961731689453L4.79006328125,39.81448731689453Q4.84847328125,42.50978731689453,6.42557328125,44.61918731689453Q7.53539328125,45.96678731689453,9.28772328125,46.66988731689453L18.45826328125,50.30278731689453Q19.27606328125,50.53708731689453,19.68496328125,49.77538731689453Q19.91856328125,48.955087316894534,19.15926328125,48.54488731689453L9.98866328125,44.97068731689453Q8.87884328125,44.50198731689453,8.11950328125,43.68168731689453L17.40686328125,40.283187316894534Q18.10786328125,40.04878731689453,18.80876328125,40.04878731689453Q19.50966328125,40.04878731689453,20.21066328125,40.283187316894534L36.56576328125,46.20118731689453Q37.44196328125,46.61128731689453,37.50036328125,47.54878731689453Q37.44196328125,48.48628731689453,36.56576328125,48.896487316894536L20.21066328125,54.81448731689453Q19.50966328125,55.04878731689453,18.80876328125,55.04878731689453ZM7.59380328125,33.017587316894534Q7.71062328125,31.376957316894533,10.86486328125,30.146487316894532Q14.01906328125,28.85742951689453,18.80876328125,28.79883571689453Q23.59846328125,28.85742951689453,26.75266328125,30.146487316894532Q29.90686328125,31.376957316894533,30.02366328125,33.017587316894534L29.14756328125,41.51368731689453L20.85316328125,38.525397316894534Q19.86016328125,38.173837316894534,18.80876328125,38.173837316894534Q17.75736328125,38.173837316894534,16.82276328125,38.525397316894534L8.46997328125,41.51368731689453L7.59380328125,33.017587316894534Z" fill="#002D62" fill-opacity="1" style="mix-blend-mode:passthrough"/></g></g></g></svg>