<svg xmlns="http://www.w3.org/2000/svg" xmlns:xlink="http://www.w3.org/1999/xlink" fill="none" version="1.1" width="37.5" height="30" viewBox="0 0 37.5 30"><defs><clipPath id="master_svg0_157_6126"><rect x="0" y="0" width="37.5" height="30" rx="0"/></clipPath></defs><g clip-path="url(#master_svg0_157_6126)"><g transform="matrix(1,0,0,-1,0,61.289066314697266)"><g><path d="M12.22898748509884,40.01953315734863Q17.35318748509884,40.136723157348634,20.78878748509884,43.066433157348634Q24.224287485098838,45.93753315734863,24.34078748509884,50.33203315734863Q24.224287485098838,54.72653315734863,20.78878748509884,57.59763315734863Q17.35318748509884,60.527333157348636,12.22898748509884,60.64453315734863Q7.104767485098839,60.527333157348636,3.669207485098839,57.59763315734863Q0.23364748509883881,54.72653315734863,0.1171874850988388,50.33203315734863Q0.1754172850988388,46.87503315734863,2.446377485098839,44.29683315734863Q2.096997485098839,43.417933157348635,1.572937485098839,42.83203315734863Q1.1653274850988389,42.304733157348636,0.8159454850988388,42.01173315734863Q0.6412554850988388,41.835933157348634,0.5830264850988388,41.777333157348636Q0.5247964850988388,41.71873315734863,0.5247964850988388,41.71873315734863L0.4665664850988388,41.71873315734863Q0.0007274850988388121,41.30863315734863,0.1754172850988388,40.66403315734863Q0.4083364850988388,40.078123157348635,1.048864485098839,40.01953315734863Q3.028677485098839,40.078123157348635,4.659117485098839,40.72263315734863Q5.474327485098839,41.07423315734863,6.114857485098839,41.42573315734863Q8.851657485098839,40.078123157348635,12.22898748509884,40.01953315734863ZM26.20418748509884,50.33203315734863Q26.029487485098837,45.292933157348635,22.477387485098838,42.01173315734863Q18.86718748509884,38.730473157348634,13.626487485098838,38.203123157348635Q14.73288748509884,34.86328315734863,17.87728748509884,32.81250315734863Q21.021687485098838,30.703126957348633,25.27248748509884,30.644533157348633Q28.649787485098837,30.703126957348633,31.38658748509884,32.05078315734863Q32.02708748509884,31.699223157348634,32.84238748509884,31.347658157348633Q34.47278748509884,30.703126957348633,36.45258748509884,30.644533157348633Q37.09308748509884,30.703126957348633,37.32608748509884,31.289064157348633Q37.50068748509884,31.933593157348632,36.976687485098836,32.34375315734863L36.976687485098836,32.40234315734863Q36.91838748509884,32.40234315734863,36.91838748509884,32.40234315734863Q36.86018748509884,32.46094315734863,36.68548748509884,32.636723157348634Q36.33608748509884,32.92969315734863,35.92848748509884,33.45703315734863Q35.40448748509884,34.101563157348636,35.05508748509884,34.921873157348635Q37.32608748509884,37.50000315734863,37.38428748509884,40.95703315734863Q37.267787485098836,45.117233157348636,34.12338748509884,47.988333157348634Q30.978987485098838,50.85933315734863,26.14588748509884,51.26953315734863Q26.20418748509884,50.800833157348634,26.20418748509884,50.33203315734863Z" fill="#002D62" fill-opacity="1" style="mix-blend-mode:passthrough"/></g></g></g></svg>